<svg xmlns="http://www.w3.org/2000/svg" viewBox="0 0 24 24" fill="none" stroke="#2563eb" stroke-width="2" stroke-linecap="round" stroke-linejoin="round">
  <path d="M8 2l1.88 1.88"></path>
  <path d="M14.12 3.88L16 2"></path>
  <path d="M9 7.13v-1a3.003 3.003 0 1 1 6 0v1"></path>
  <path d="M12 20c-3.3 0-6-2.7-6-6v-3a4 4 0 0 1 4-4h4a4 4 0 0 1 4 4v3c0 3.3-2.7 6-6 6"></path>
  <path d="M4 13h4"></path>
  <path d="M16 13h4"></path>
  <path d="M8 21v-1"></path>
  <path d="M16 21v-1"></path>
  <path d="M12 21v-1"></path>
  <path d="M12 12v-1"></path>
</svg>